# xmcd CD database file
# Generated: Thu Jan 31 11:32:33 2002 by KSCD
# 
# Track frame offsets:
#       150
#       18815
#       36445
#       52225
#       69760
#       85255
#       101857
#       118607
#       137052
#       151717
#       169255
#
# Disc length: 2478 seconds
#
# Revision: 1
# Processed by: cddbd v1.4PL0 Copyright (c) Steve Scherf et al.
# Submitted via: Kscd 1.3.2
#
DISCID=8d09ac0b
DTITLE=Phil Vassar - Phil Vassar
DYEAR=1900
DGENRE=
TTITLE0=Carlene
TTITLE1=Just Another Day In Paradise
TTITLE2=That`s When Love You
TTITLE3=Rose Bouquet
TTITLE4=Joe and Rosalita
TTITLE5=Six-pack Summer
TTITLE6=Lucky As Me
TTITLE7=Like I Never Loved Before
TTITLE8=Didn`t You Know She`s Gone
TTITLE9=Somewhere In Between
TTITLE10=Drive Away
EXTD=
EXTT0=
EXTT1=
EXTT2=
EXTT3=
EXTT4=
EXTT5=
EXTT6=
EXTT7=
EXTT8=
EXTT9=
EXTT10=
PLAYORDER=
